<svg 
 xmlns="http://www.w3.org/2000/svg"
 xmlns:xlink="http://www.w3.org/1999/xlink"
 width="529px" height="56px">
<path fill-rule="evenodd"  stroke-width="2px" stroke="rgb(53, 53, 53)" fill="none"
 d="M508.792,51.156 L508.792,23.193 L492.299,38.399 L483.602,38.399 L466.909,23.065 L466.909,51.156 L425.927,51.156 L425.927,3.993 L464.111,3.993 L488.200,26.737 L512.090,3.993 L524.985,3.993 L524.985,51.156 L508.792,51.156 ZM397.390,49.577 C392.557,51.188 386.810,51.993 380.147,51.993 C373.483,51.993 367.735,51.188 362.904,49.577 C358.072,47.967 354.374,45.658 351.809,42.651 C349.243,39.645 347.960,36.123 347.960,32.085 L347.960,3.993 L365.053,3.993 L365.053,29.185 C365.053,33.567 366.385,36.788 369.052,38.850 C371.716,40.912 375.415,41.942 380.147,41.942 C384.878,41.942 388.576,40.912 391.242,38.850 C393.907,36.788 395.241,33.567 395.241,29.185 L395.241,3.993 L412.333,3.993 L412.333,32.085 C412.333,36.123 411.050,39.645 408.485,42.651 C405.919,45.658 402.220,47.967 397.390,49.577 ZM267.296,51.156 L315.276,3.993 L344.363,3.993 L296.384,51.156 L267.296,51.156 ZM201.624,44.906 L233.511,13.722 L204.723,13.722 L204.723,3.993 L257.101,3.993 L257.101,10.243 L225.414,41.363 L258.500,41.363 L258.500,51.156 L201.624,51.156 L201.624,44.906 ZM178.985,49.577 C174.152,51.188 168.405,51.993 161.742,51.993 C155.078,51.993 149.330,51.188 144.499,49.577 C139.667,47.967 135.969,45.658 133.404,42.651 C130.838,39.645 129.555,36.123 129.555,32.085 L129.555,3.993 L146.648,3.993 L146.648,29.185 C146.648,33.567 147.981,36.788 150.647,38.850 C153.311,40.912 157.010,41.942 161.742,41.942 C166.473,41.942 170.171,40.912 172.837,38.850 C175.502,36.788 176.836,33.567 176.836,29.185 L176.836,3.993 L193.928,3.993 L193.928,32.085 C193.928,36.123 192.645,39.645 190.080,42.651 C187.514,45.658 183.816,47.967 178.985,49.577 ZM99.869,23.193 L83.376,38.399 L74.680,38.399 L57.987,23.065 L57.987,51.156 L4.010,51.156 L4.010,3.993 L55.188,3.993 L79.278,26.737 L103.168,3.993 L116.063,3.993 L116.063,51.156 L99.869,51.156 L99.869,23.193 Z"/>
</svg>